<?xml version="1.0" encoding="UTF-8" standalone="no"?>
<!-- Created with matplotlib (https://matplotlib.org/) -->

<svg
   xmlns:dc="http://purl.org/dc/elements/1.1/"
   xmlns:cc="http://creativecommons.org/ns#"
   xmlns:rdf="http://www.w3.org/1999/02/22-rdf-syntax-ns#"
   xmlns:svg="http://www.w3.org/2000/svg"
   xmlns="http://www.w3.org/2000/svg"
   xmlns:sodipodi="http://sodipodi.sourceforge.net/DTD/sodipodi-0.dtd"
   xmlns:inkscape="http://www.inkscape.org/namespaces/inkscape"
   height="383.63318pt"
   version="1.1"
   viewBox="0 0 400.56641 383.63318"
   width="400.56641pt"
   id="svg598"
   sodipodi:docname="bcGenRNDSurveyData.svg"
   inkscape:version="0.92.3 (2405546, 2018-03-11)"
   inkscape:export-filename="E:\Dev\bcc_QGIS_Plugins\git\geoprocAlgos\res\bcGenRNDSurveyData3.png"
   inkscape:export-xdpi="8.5897665"
   inkscape:export-ydpi="8.5897665">
  <metadata
     id="metadata602">
    <rdf:RDF>
      <cc:Work
         rdf:about="">
        <dc:format>image/svg+xml</dc:format>
        <dc:type
           rdf:resource="http://purl.org/dc/dcmitype/StillImage" />
        <dc:title></dc:title>
      </cc:Work>
    </rdf:RDF>
  </metadata>
  <sodipodi:namedview
     pagecolor="#ffffff"
     bordercolor="#666666"
     borderopacity="1"
     objecttolerance="10"
     gridtolerance="10"
     guidetolerance="10"
     inkscape:pageopacity="0"
     inkscape:pageshadow="2"
     inkscape:window-width="1601"
     inkscape:window-height="910"
     id="namedview600"
     showgrid="false"
     fit-margin-top="0"
     fit-margin-left="0"
     fit-margin-right="0"
     fit-margin-bottom="0"
     inkscape:zoom="0.43328125"
     inkscape:cx="287.63253"
     inkscape:cy="194.02624"
     inkscape:window-x="2097"
     inkscape:window-y="4"
     inkscape:window-maximized="0"
     inkscape:current-layer="svg598" />
  <defs
     id="defs4"
     style="stroke-linecap:butt;stroke-linejoin:round">
    <style
       type="text/css"
       id="style2">
*{stroke-linecap:butt;stroke-linejoin:round;}
  </style>
  </defs>
  <g
     id="line2d_19"
     style="stroke-linecap:butt;stroke-linejoin:round;stroke-width:2.24999999;stroke-miterlimit:4;stroke-dasharray:none"
     transform="translate(-94.023823,-93.694847)">
    <path
       clip-path="url(#pd252e982ba)"
       d="m 207.77725,434.23635 -0.74817,-0.74818 -5.21165,-6.73001 5.26637,2.40526 -0.43947,-3.00988 2.58916,0.10785 -2.28951,-4.84158 3.36885,1.21105 -2.66365,-4.81558 7.33783,4.50462 -0.63932,-2.2125 0.46604,-2.08483 1.11439,-1.97799 3.57967,2.02519 -2.95095,-5.05276 3.95389,1.59143 2.23688,-0.76747 -1.04914,-3.05688 0.005,-2.39642 2.09378,-0.85226 1.73264,-0.46389 2.28546,-0.45458 4.02807,2.33114 2.08602,-0.32838 -0.86122,-3.54273 1.88423,-0.32212 3.16896,1.07626 -3.02368,-5.26986 2.25988,-0.84587 3.39556,1.02911 5.12479,2.72959 -3.56978,-5.95514 2.59322,1.04635 5.53685,2.8603 -1.24287,-3.54983 3.05402,0.34048 -1.94481,-4.33872 1.19913,-1.37387 2.42957,0.14512 0.63454,-1.37668 4.53743,1.93355 3.44339,0.80438 -2.2928,-4.45951 3.23856,1.13138 -3.18532,-5.4391 3.96953,-0.37405 1.82449,-0.90362 0.40784,-1.88316 0.24745,-2.38665 4.62748,2.50902 1.08997,-2.13943 -0.18127,-1.71275 -0.55089,-3.19822 0.0376,-1.89876 2.57293,-0.33592 2.51031,0.601 0.68249,-1.86235 -5.20263,-7.94598 4.99016,2.5064 -0.45832,-2.51588 1.05625,-1.44562 0.27192,-1.70889 3.00057,0.70553 0.20859,-1.98888 -1.21614,-3.60086 1.39228,-1.18919 -0.30163,-2.64236 2.82532,0.13343 0.0212,-2.80369 0.62826,-1.26028 -0.254,-2.70264 0.30601,-1.68873 3.82811,1.47628 2.6457,0.47992 -3.95423,-7.45651 7.23311,4.84717 -5.59642,-6.87221 2.02698,-0.87289 4.34836,2.41432 3.64824,1.03668 -4.29898,-7.22251 5.42344,3.5015 -0.005,-2.99324 1.91507,-0.34728 1.83629,-0.55574 3.99772,1.59096 -0.46904,-2.08735 -2.42481,-4.56088 7.80802,4.6356 -3.2857,-5.51562 1.33152,-1.44929 6.54389,4.40123 -3.58007,-5.66962 5.89959,3.65491 2.29136,0.0183 -1.47613,-3.97655 0.1664,-2.63781 5.08624,3.11428 4.46476,-0.53593 -2.33093,-4.90823 5.83604,3.93119 -0.71413,-3.12999 1.61403,-0.31898 -2.83357,-5.2389 5.52909,2.81984 1.45215,-1.12443 1.9156,-0.51473 1.70148,-0.20367 1.55351,-1.56271 0.89015,-0.40346 -1.34261,-3.81559 4.11118,1.27035 -4.8262,-7.0962 5.373,2.72264 0.8119,-1.37212 2.16784,-0.13504 -0.78605,-3.84157 2.0203,0.0732 1.14733,-1.17845 -3.76055,-5.81685 0.54508,-2.3672 0.55648,-1.21262 2.80847,0.10069 -0.61655,-2.92896 3.77841,1.91051 0.45471,-2.84538 -3.72589,-5.31669 4.54094,1.78027 -1.64602,-3.51604 3.77159,0.96584 -3.15162,-5.79304 5.26876,2.88173 -1.69581,-3.98115 3.75827,1.56032 -4.49575,-6.35493 4.94869,-0.53885 1.12112,-0.48992 3.30814,0.23623 1.56116,-0.8824 -4.28065,-6.03749 5.67918,2.37184 -3.76368,-4.98519 3.57514,1.13124 0.79459,-2.63863 3.77581,2.27354 0.8454,-1.33148 -0.23796,-3.11196 2.73178,0.76727 0.16447,-2.57224 3.04368,0.80728 0.83481,-1.72286 0.64769,-1.71253 0.9888,-1.86949 4.11794,2.40337 1.28327,-1.14149 2.58336,-0.13363 2.20367,0.0925 0.19014,-1.93768 2.01983,-0.64645 0.75144,-1.92308 0.14048,-1.35395 6.57894,3.60532 -1.47149,-4.0285 1.78822,-0.34597 -1.17658,-3.19073 1.32075,-1.24368 4.64634,2.01919 2.71855,0.59944 -0.45233,-3.34987 5.19445,2.84461 1.2932,-1.14625 -3.79427,-5.62383 4.95825,2.27385 -2.22098,-3.8752 5.10079,2.67754 -0.53961,-3.82695 0.30481,-1.24177 3.41729,0.49 -4.40312,-6.36496 6.46759,3.41449 0.27891,-1.41931 -0.32982,-3.08289 2.02095,-0.6265 -1.5529,-3.46988 4.31133,1.50687 -4.51586,-9.40061 3.27159,0.94773 4.50999,2.32185 0.36452,-1.41592 -0.81763,-3.468 -1.55417,-4.37491 2.56129,0.16713 -0.63868,-2.75493 0.46104,-2.32235 1.61061,-0.42006 -2.90912,-4.46152 3.57113,1.03738 -1.83325,-4.27728 7.17504,7.17504 v 0"
       style="fill:none;stroke:#810092;stroke-width:2.24999999;stroke-linecap:square;stroke-linejoin:round;stroke-miterlimit:4;stroke-dasharray:none"
       id="path336"
       inkscape:connector-curvature="0" />
  </g>
  <g
     id="line2d_27"
     style="stroke-linecap:butt;stroke-linejoin:round;stroke-width:2.24999999;stroke-miterlimit:4;stroke-dasharray:none"
     transform="translate(-94.023823,-93.694847)">
    <path
       clip-path="url(#pd252e982ba)"
       d="m 192.49191,419.24 -3.0649,-3.06489 -0.4671,-3.26203 3.24024,1.49654 -0.57098,-3.143 3.32325,1.05161 -3.47769,-5.50236 7.33437,2.41001 -3.13278,-5.5814 3.4667,0.38567 -1.66858,-3.84251 1.90995,0.32412 1.26318,-1.70626 3.4278,1.03549 3.45404,1.36521 -3.65724,-6.5662 5.02621,3.38177 -2.07906,-5.18518 4.20715,2.54521 1.37811,-1.86461 2.90376,0.68987 -2.44645,-4.10753 3.51055,0.62943 2.17657,0.0876 1.89649,-0.18137 89.49498,86.54343 -87.53875,-89.86072 3.80165,1.92023 -2.24743,-4.52653 3.58529,1.04569 -0.52115,-3.67704 5.56405,3.52338 0.21527,-1.84027 3.99178,1.92185 -0.13242,-2.59427 3.73352,-1.57079 90.34261,88.36362 -91.0873,-93.40324 -0.0989,-2.59478 1.56346,-1.48401 4.44535,2.24001 87.59534,86.11229 -88.34048,-91.40001 4.73855,2.43169 -2.21299,-4.07237 2.59264,-0.0218 1.18128,-0.84544 2.44364,-0.0761 0.62424,-2.63697 -1.94587,-3.3651 4.95063,1.92748 0.0855,-2.14718 2.28414,0.48769 0.30483,-2.91523 -3.703,-6.12144 0.75033,-0.6543 6.19666,2.88854 -0.54185,-2.26105 -1.82326,-3.9709 4.04653,1.48001 -1.00475,-3.36711 1.89053,-0.59136 -0.57248,-3.05671 -0.24808,-3.02914 0.97769,-0.63836 3.38226,0.10629 -1.92833,-3.35475 0.79976,-1.47646 3.52898,0.23918 2.3391,0.70468 -1.9432,-4.64235 -0.73987,-3.50477 -86.18548,-88.33486 93.24997,90.87474 -0.52949,-3.23735 0.94985,-0.87255 2.75247,0.14574 -1.91759,-3.71184 -0.36085,-2.99659 3.2729,1.31284 4.20566,0.97923 1.54559,-0.99436 1.62407,-0.32026 0.0988,-2.78741 3.28993,1.33951 89.58432,87.93025 -87.91237,-90.55603 2.52429,-0.17347 -0.96812,-3.20931 -0.63806,-3.17963 1.71713,-0.28545 5.37469,2.73746 -2.90437,-4.73418 4.45372,1.39694 -0.70454,-2.94438 3.5715,1.6473 1.36108,-1.23045 4.58225,2.27787 0.36249,-2.75059 -0.0158,-2.10868 3.66506,1.33901 -1.25301,-3.3763 3.20415,0.40801 1.08933,-0.71965 2.40135,-0.59358 -0.89842,-2.41753 0.29895,-2.65811 2.04827,-0.21667 3.52478,1.61644 -1.8038,-7.42359 1.75146,0.0365 1.83033,-3.22303 2.42579,0.10322 2.17138,-0.58207 -0.33319,-2.10986 1.22972,-1.16048 1.98043,-0.90916 -1.97769,-4.31994 3.93048,1.91353 -0.21745,-3.18862 -1.23246,-2.76369 3.12212,0.74985 1.94512,-0.41932 1.13084,-1.49738 -3.05154,-5.56044 1.72264,-0.38036 -0.69587,-3.53212 4.96414,3.03004 -3.44077,-6.24918 1.08591,-1.15753 3.73317,2.03064 -1.68178,-4.6276 5.1636,2.40797 87.00048,84.49508 -86.44379,-88.26196 0.6066,-2.31725 2.27357,0.27686 -2.25971,-4.57265 1.52906,-0.88497 2.99794,0.41903 2.40951,0.78046 -2.69533,-5.44532 3.05504,1.1207 -1.416,-3.97302 1.61621,-0.52498 2.43857,-0.15512 4.67711,2.05642 -0.004,-1.87304 2.63587,0.19545 2.12346,-0.91277 -3.4454,-5.70658 1.69609,0.006 6.17888,2.72996 -2.51088,-4.94756 2.68403,0.97744 4.98049,2.89945 -2.18774,-4.38053 5.76508,2.78467 0.8756,-1.47323 -0.11997,-4.57012 2.51138,-0.6996 2.6944,1.40241 0.18509,-2.53521 -0.37546,-2.46277 4.85464,1.57731 2.81195,0.63957 -1.54773,-4.16497 1.67528,-0.69755 3.74699,1.8981 -1.21226,-3.0285 93.15271,90.77988 -91.39817,-94.5533 4.64081,1.91073 -1.36692,-3.35224 -0.19084,-2.12372 2.60499,-0.51855 3.36491,-0.46178 1.05732,-1.59553 -1.14932,-4.01826 -2.01673,-3.82754 2.74397,0.16484 4.04699,1.53322 -3.42861,-5.73798 2.37824,0.48723 -0.30002,-2.49766 5.32963,1.98987 -2.20902,-4.22486 -1.29658,-4.10889 0.88587,-1.11643 0.44796,-2.39927 3.81461,2.22391 -2.02454,-5.14157 2.54515,0.62695 -1.17293,-2.95791 1.39479,-1.95744 0.68991,-1.73511 6.10314,6.10313 v 0"
       style="fill:none;stroke:#005ddd;stroke-width:2.24999999;stroke-linecap:square;stroke-linejoin:round;stroke-miterlimit:4;stroke-dasharray:none"
       id="path360"
       inkscape:connector-curvature="0" />
  </g>
  <g
     id="line2d_35"
     style="stroke-linecap:butt;stroke-linejoin:round;stroke-width:2.24999999;stroke-miterlimit:4;stroke-dasharray:none"
     transform="translate(-94.023823,-93.694847)">
    <path
       clip-path="url(#pd252e982ba)"
       d="m 177.10159,404.02371 -1.31011,-1.31012 0.25212,-2.33931 -0.14148,-2.94561 2.95857,0.98705 1.74468,-0.67562 56.90263,55.24892 -59.15453,-62.45268 3.79197,1.63292 2.69518,0.0465 -2.12348,-3.83511 1.5397,-1.50417 2.21886,0.73299 1.79603,-1.30149 0.53567,-2.09856 -1.08331,-2.7893 3.41489,0.91339 1.87962,-0.30359 1.21543,-1.00332 -0.59017,-3.40561 0.51794,-1.74986 4.1598,1.70782 -89.06942,-91.13782 92.51036,89.8314 2.34316,-0.2713 0.22582,-2.1034 -0.83795,-2.45636 2.09486,-0.19638 61.62464,59.26856 -57.23245,-59.60099 3.63862,0.76005 -0.21343,-2.84773 1.25641,-0.63382 4.49155,1.2631 -0.54613,-2.87222 0.0408,-1.74693 1.32318,-1.20824 0.9911,-1.54239 5.42218,3.58597 -3.45195,-6.30955 1.73474,-0.95619 0.74972,-1.08396 7.08052,4.54249 0.73684,-1.02326 -0.88219,-4.10226 3.59123,1.15832 -4.42229,-6.85602 4.68071,3.28483 1.09765,-2.20797 2.12944,0.36027 0.87346,-1.59145 -2.38224,-5.06817 3.16968,1.0681 0.34007,-1.89691 -0.63243,-3.12442 -0.035,-1.84227 2.29263,-0.29278 2.59159,0.21174 -3.0656,-5.50597 4.68683,2.19702 -0.45389,-2.48407 0.69171,-1.73414 -1.06053,-3.97017 4.27807,1.77598 -0.90918,-3.36806 0.0539,-1.52847 -86.3131,-89.35059 149.29984,145.22453 -60.32929,-63.50637 3.3974,1.73971 -2.76902,-5.23177 2.83191,0.128 4.4217,1.87045 -0.71441,-3.29754 -0.0506,-2.45348 -1.31709,-2.78457 5.70614,2.62832 57.99724,55.80445 -55.18305,-57.3605 1.06924,-1.09134 -2.54735,-4.91484 6.50112,3.35749 -1.36218,-3.66936 3.2166,1.24434 1.04281,-0.81536 57.0893,53.9003 -55.86253,-57.54244 1.58397,-0.89981 1.1876,-1.37023 4.8068,2.02639 -3.57267,-5.11793 1.91018,-0.8102 5.04988,2.45209 0.34071,-2.0396 3.6893,1.74007 0.81304,-1.59028 3.36041,0.24884 -2.72172,-4.47903 4.70723,2.07044 1.82308,0.0282 -2.12768,-4.91639 4.82476,2.45793 -3.19543,-5.69797 5.83534,3.36031 -2.85228,-5.62853 -85.26449,-87.44045 90.56546,88.88958 0.12102,-2.76754 -0.4056,-3.03144 6.76568,4.43103 -3.92182,-5.85737 2.70431,0.64352 3.40829,1.0307 -3.45075,-6.718 4.96339,3.65426 1.22509,-1.69222 -2.32153,-4.55716 2.5895,-0.0309 1.37636,-0.43219 1.38829,-0.96078 0.90376,-1.58314 -1.63043,-4.33749 2.51336,-0.46769 -1.09893,-2.98272 4.82419,2.47584 0.61658,-1.46957 -4.60404,-6.79609 2.41049,-0.39132 1.7148,-0.75012 0.2233,-1.57821 -1.12357,-3.65458 3.34522,0.48483 1.50215,-0.12165 3.73675,0.77279 -2.19984,-4.21169 3.62117,1.47973 0.13141,-2.67802 -2.13086,-6.46184 4.42837,1.66707 2.06559,-0.16253 57.01291,54.38813 -58.18548,-61.06349 3.53254,1.63925 -0.68553,-2.5452 4.3924,1.88674 -2.68399,-5.1262 0.86914,-2.34451 3.39887,1.20054 4.43878,2.33031 1.02495,-1.21983 -2.13639,-4.60542 1.40753,-1.14383 2.62323,0.60104 0.21943,-2.00421 6.67003,3.54099 -0.0963,-2.04634 2.68212,0.12985 -0.14474,-2.54557 2.58693,0.3161 -0.24283,-2.60931 3.8775,1.40836 0.50643,-2.03196 2.30723,0.59561 -0.90101,-3.13203 -0.1013,-3.2935 3.00297,0.89507 1.39875,-0.37317 4.29638,1.93795 -3.67091,-6.52453 3.091,0.2918 1.77432,0.33903 0.002,-2.53603 4.96967,2.33113 0.41676,-1.40848 -1.08252,-3.81571 -86.99107,-89.81807 89.61615,87.91334 4.33611,1.71013 1.63866,-1.12254 -3.7542,-5.90478 2.92639,0.18677 1.38826,-0.3104 -0.16483,-2.55404 2.03551,-0.45945 2.66163,0.37635 0.7211,-1.33716 0.90793,-2.18544 -3.02032,-5.17183 3.92422,1.94116 -1.02351,-3.35004 2.73073,0.21866 -0.0138,-3.24884 58.62625,56.28114 -55.47814,-57.27667 -1.43815,-3.81925 1.67021,-0.35582 0.1698,-2.22534 3.381,-1.49284 -0.9809,-3.41225 3.38021,3.38022 v 0"
       style="fill:none;stroke:#00aa88;stroke-width:2.24999999;stroke-linecap:square;stroke-linejoin:round;stroke-miterlimit:4;stroke-dasharray:none"
       id="path384"
       inkscape:connector-curvature="0" />
  </g>
  <g
     id="line2d_43"
     style="stroke-linecap:butt;stroke-linejoin:round;stroke-width:2.24999999;stroke-miterlimit:4;stroke-dasharray:none"
     transform="translate(-94.023823,-93.694847)">
    <path
       clip-path="url(#pd252e982ba)"
       d="m 162.1697,388.66474 -1.3107,-1.3107 -0.006,-2.08189 -0.54559,-2.54288 3.29416,0.65322 1.82176,-0.75222 57.4187,54.78294 -60.01235,-61.64918 3.9539,1.47342 2.92551,-0.18264 -1.90358,-4.05767 0.88283,-0.84728 2.89393,0.0592 1.55568,-1.06091 0.49913,-2.06272 -1.00533,-2.86901 3.20818,1.12204 1.91863,-0.3419 1.25479,-1.04259 -0.29584,-3.70172 0.52192,-1.75439 4.14049,1.72975 -89.206791,-91.08094 92.388351,90.03485 2.04072,0.0321 0.27863,-2.15704 -0.31788,-2.9779 1.9841,-0.0848 61.90927,59.03794 -57.06837,-59.81725 2.86164,1.53898 -0.065,-2.99754 1.27806,-0.65518 4.41574,1.34147 -0.94814,-2.47174 0.45353,-2.16038 1.28271,-1.16773 1.07293,-1.62446 5.47963,3.53254 -3.78067,-5.98518 2.00044,-1.22154 0.90679,-1.24119 6.69821,4.92999 1.07709,-1.36363 -0.81038,-4.17629 3.02935,1.72232 -4.26708,-7.01627 5.39651,2.57259 0.36386,-1.47468 2.23979,0.25102 1.37556,-2.09386 -2.77952,-4.67422 3.14218,1.0975 0.60307,-2.16061 -0.55714,-3.20139 -0.13069,-1.74743 2.35282,-0.35209 2.63237,0.17222 -3.32842,-5.24698 5.08162,1.8053 -0.47123,-2.46805 0.81571,-1.8586 -1.27528,-3.75765 3.6936,2.36314 -0.61587,-3.66328 0.33348,-1.8087 -86.60734,-89.13482 89.37191,86.74109 60.55185,57.99107 -60.77543,-63.11554 3.45038,1.68903 -2.65038,-5.35399 2.65977,0.30146 4.11407,2.1809 -0.80463,-3.20912 -0.0356,-2.4696 -0.97688,-3.12662 5.37395,2.96424 58.47343,55.3791 -55.4581,-57.13573 1.08972,-1.11184 -2.20391,-5.2616 6.09254,3.77048 -1.68341,-3.3504 3.48544,0.97751 1.30299,-1.07544 57.1846,53.85457 -55.595,-57.86063 1.56682,-0.88235 0.73011,-0.91282 4.73243,2.10382 -3.44589,-5.2486 2.0181,-0.91763 4.88204,2.62329 0.15861,-1.85827 4.15004,1.28176 0.89879,-1.67637 3.11723,0.49362 -2.79251,-4.41146 4.67756,2.10314 2.24218,-0.39003 -2.30096,-4.74626 4.87492,2.41101 -3.24566,-5.6517 5.64383,3.55592 -2.9517,-5.5329 -85.58379,-87.19829 91.01151,88.52369 0.21087,-2.85856 -0.8089,-2.62969 6.95933,4.2424 -3.95837,-5.8252 3.01056,0.33875 3.50165,0.93933 -4.0955,-6.0778 5.64652,2.975 1.11622,-1.58356 -2.49735,-4.38441 2.56266,-0.003 1.67051,-0.72592 1.24061,-0.8129 1.05321,-1.7329 -2.21881,-3.75177 2.45137,-0.40479 -0.61076,-3.47271 4.5074,2.79589 0.5845,-1.43787 -4.38394,-7.02128 2.27683,-0.25676 1.58401,-0.6189 0.38689,-1.7424 -0.97966,-3.80063 2.89126,0.94051 2.29543,-0.91432 3.16788,1.34367 -1.77542,-4.63897 3.65441,1.44876 -0.36787,-2.17986 -1.22794,-3.49987 -0.64708,-3.22166 4.47026,1.6279 1.82028,0.0836 57.14729,54.30352 -58.38869,-60.91356 3.74836,1.42575 -0.21994,-3.01223 3.81124,2.4707 -2.47542,-5.33826 0.53542,-2.01145 3.30238,1.29908 4.58379,2.18832 1.20577,-1.40073 -2.10016,-4.64466 1.1105,-0.84669 3.07172,0.154 0.30575,-2.09133 6.08588,4.1297 0.39652,-2.54009 2.25579,0.55743 0.0856,-2.77714 2.42182,0.48249 -0.14492,-2.70849 3.97194,1.31629 0.50933,-2.03554 2.49937,0.40475 -1.15807,-2.87677 -0.56733,-2.82898 3.20796,0.69181 1.98707,-0.96101 4.05484,2.18226 -3.80274,-6.39726 2.79095,0.59337 2.44679,-0.33249 -0.40503,-2.13026 4.85667,2.44739 0.86884,-1.86099 -1.20149,-3.69893 -87.08556,-89.802558 89.65137,87.957418 4.45483,1.5941 1.54185,-1.0255 -4.12114,-5.54215 3.18564,-0.0711 1.58203,-0.50369 -0.21593,-2.50416 1.90329,-0.32653 2.80066,0.23868 0.70189,-1.31823 0.51108,-1.78916 -2.52315,-5.67266 4.03031,1.83769 -0.96484,-3.41066 2.4555,0.4952 -0.29603,-2.96808 58.42384,56.53488 -55.20204,-57.60314 -1.09244,-4.16731 1.75247,-0.43749 -0.10952,-1.94693 1.60762,-0.73675 2.17302,-1.1549 -1.08171,-3.3134 3.38173,3.38173 v 0"
       style="fill:none;stroke:#00e400;stroke-width:2.24999999;stroke-linecap:square;stroke-linejoin:round;stroke-miterlimit:4;stroke-dasharray:none"
       id="path408"
       inkscape:connector-curvature="0" />
  </g>
  <g
     id="line2d_51"
     style="stroke-linecap:butt;stroke-linejoin:round;stroke-width:2.24999999;stroke-miterlimit:4;stroke-dasharray:none"
     transform="translate(-94.023823,-93.694847)">
    <path
       clip-path="url(#pd252e982ba)"
       d="m 147.09978,373.3278 -3.27856,-3.27856 -2.12213,-4.18976 3.92211,1.55793 1.17568,-0.7424 -2.57184,-5.48899 5.74603,3.13636 -4.52856,-6.27809 3.77684,1.27122 2.34988,0.53191 -0.66991,-3.53071 0.548,-2.12774 3.72607,1.6668 -1.06338,-4.03705 4.21478,2.17929 -1.85784,-3.48693 3.11123,0.11786 2.50882,0.26725 -0.16991,-2.57065 3.3579,0.68002 2.97087,1.11438 1.06603,-3.77261 2.5724,0.14527 1.68785,-0.58252 -1.01798,-2.9997 1.60847,-1.87947 5.34629,1.72788 0.3004,-2.74197 0.41048,-1.49552 0.59252,-1.58805 3.0175,-0.21162 1.29473,-0.26964 5.48731,2.18945 -2.60277,-4.86563 5.35322,3.05363 -0.0629,-2.0375 0.82342,-1.28654 1.21956,-1.67155 3.27355,1.02276 0.76412,-1.37872 2.31419,-0.69504 2.35519,0.1198 -4.14841,-6.35317 4.45017,2.23582 1.76185,-0.94977 -0.82233,-3.02894 2.75122,0.39782 0.83116,-1.55599 -2.59692,-5.15391 4.91945,3.29248 1.96848,-0.58592 -3.27553,-8.6764 4.80456,2.93625 -4.45194,-7.01217 6.17305,3.79456 0.55478,-1.5277 -4.81899,-7.41996 0.91738,-1.94842 1.54293,-0.70657 3.72947,2.094 0.68065,-2.40058 1.26069,-0.17768 0.005,-3.31046 -2.2177,-4.03003 4.3488,1.62768 -2.81425,-5.34763 3.756,2.09059 0.004,-2.61377 3.02015,-0.027 -1.9296,-3.39984 -0.70184,-2.95332 4.23881,1.31066 0.64207,-1.28401 2.15858,-0.40533 -1.48935,-3.49722 4.54527,2.13024 -0.22733,-3.24222 -1.4292,-3.36805 3.97443,0.89296 2.50651,-0.0165 3.57108,1.6767 -1.07278,-3.23557 -0.0306,-2.82617 4.05343,1.92731 2.28286,-0.56482 2.76379,1.40718 1.20912,-1.65071 -1.17646,-3.88131 4.80295,2.87483 0.53856,-2.42949 2.64337,0.44763 -4.01787,-5.78939 3.56292,0.74498 -0.0276,-1.96957 2.51375,-0.50023 4.8357,2.75863 1.01434,-0.88292 0.26213,-2.82986 1.06431,-0.75355 2.55999,0.22725 4.00008,1.68223 0.49729,-1.63148 3.2369,-0.24283 -0.19181,-1.80623 0.52614,-2.62493 3.32433,1.3577 0.26838,-4.40071 1.88541,-0.44523 -1.97592,-4.73464 2.42446,0.55713 -0.2203,-3.14753 4.34377,2.0063 -2.30756,-3.63273 0.32958,-2.10044 5.31919,3.00594 -1.88323,-4.44299 -0.7231,-3.10235 -0.32599,-3.43843 3.14532,0.86559 2.74891,0.14703 -0.54523,-2.82725 2.31612,-6.8e-4 0.10795,-1.913 -0.97731,-3.88672 -0.42749,-2.3571 0.85282,-0.89817 4.38838,1.02987 -3.43005,-5.16366 3.7496,1.35024 -3.18259,-5.26763 5.10667,2.57582 0.0569,-2.76753 -0.096,-2.81699 0.79701,-1.17487 -1.92248,-3.58092 2.37669,-0.24425 5.38215,3.05519 0.68586,-1.5993 -2.4226,-5.5517 4.51018,1.87368 -0.70602,-2.08559 -0.43749,-3.02666 3.42078,0.28747 2.50389,0.50076 -1.24567,-3.47736 0.33221,-1.58794 2.90682,-2.49582 7.47183,3.29425 -3.00946,-5.93683 2.08048,-0.60993 6.52486,4.38666 1.70962,0.10365 -3.84151,-6.19918 6.77154,4.18597 -0.37283,-2.62307 -1.23683,-4.40799 4.43918,2.72758 1.65728,-1.04913 2.74843,0.35965 -2.27383,-4.31227 2.52145,-0.54394 0.10281,-2.08881 3.23365,1.37249 -0.41485,-3.11838 5.76052,3.74282 -2.55601,-5.09448 6.60698,4.54573 -2.83939,-5.66125 2.58358,-0.24235 -1.18486,-3.5723 6.05229,4.28473 -3.00547,-5.3307 5.01027,2.34845 0.0987,-2.37371 1.15713,-0.71661 -1.33209,-3.92674 4.39178,2.32646 2.27432,-0.8869 -3.27661,-5.4439 4.28915,1.85599 -5.28636,-6.95675 5.66332,0.0362 1.57584,0.10776 -1.79144,-5.12415 2.78141,0.75249 -0.417,-2.0316 3.3052,0.25907 -4.12045,-6.61695 4.3943,1.83487 -2.17167,-4.62182 1.15813,-0.19706 -0.3109,-3.06185 3.28171,0.94363 -0.61984,-3.4191 0.96438,-0.54077 4.64313,4.64313 v 0"
       style="fill:none;stroke:#f5df00;stroke-width:2.24999999;stroke-linecap:square;stroke-linejoin:round;stroke-miterlimit:4;stroke-dasharray:none"
       id="path432"
       inkscape:connector-curvature="0" />
  </g>
  <g
     id="line2d_59"
     style="stroke-linecap:butt;stroke-linejoin:round;stroke-width:2.24999999;stroke-miterlimit:4;stroke-dasharray:none"
     transform="translate(-94.023823,-93.694847)">
    <path
       clip-path="url(#pd252e982ba)"
       d="m 132.12103,358.39702 -4.09854,-4.09854 0.35362,-1.23374 3.65134,0.90876 -0.41228,-2.63388 1.88013,-0.10288 2.02877,-0.26073 -2.06866,-5.26142 3.00318,1.44302 -0.85566,-3.33795 3.39077,0.70757 -1.55147,-3.8456 3.68096,1.21174 1.15852,-1.05772 0.60637,-2.20639 -0.77257,-3.46027 6.23451,4.8349 0.29702,-2.43423 1.2544,-0.98181 3.11551,0.3724 0.73199,-1.02122 -2.34785,-5.01998 2.44334,-0.13717 2.10834,-0.63011 3.98912,1.90928 0.62196,-2.11675 2.43385,0.39763 -2.15771,-4.28404 5.89794,2.93664 -2.72045,-4.05281 6.07336,3.06265 -2.17724,-3.96071 4.98917,1.84973 -0.8341,-5.51878 2.34403,-0.0643 0.42523,-1.76996 4.86434,2.45348 1.28238,-0.55444 -3.48343,-6.0084 6.24678,3.25556 -1.63204,-3.98459 2.31236,0.50113 -1.37147,-4.20839 1.44253,-1.15678 2.53884,0.29882 2.16173,-0.19526 0.32223,-1.44257 -0.52491,-3.29716 3.99428,1.68223 -1.39598,-4.3468 3.2931,1.10105 1.5583,0.0438 1.01156,-1.26901 -3.50476,-6.22021 5.8977,3.70311 1.02968,-1.65762 0.80372,-2.14488 -0.12128,-2.24962 -1.4047,-3.58003 -0.34995,-2.76232 0.42049,-1.54193 -0.18597,-2.86223 5.92636,4.09489 0.52723,-2.87069 2.51696,-2.07535 -3.21731,-5.44256 1.74218,0.0752 -0.32661,-2.90877 1.99186,-0.6315 4.04142,1.88379 1.78368,-3.64707 1.14536,-1.04277 -2.81664,-4.79335 0.95637,-1.40015 5.09838,3.06846 2.14655,-0.97111 -4.50537,-6.51336 7.14945,4.36396 -0.62442,-2.11076 0.46046,-2.83464 3.25431,1.29574 1.04405,-1.2879 -2.23894,-4.49151 2.41261,-0.68359 -0.24102,-1.62104 7.08994,4.13539 -2.78951,-5.64027 0.55722,-0.70837 3.1272,0.59 1.87155,-0.89901 2.33136,-0.13503 1.54966,-0.2087 -0.71507,-3.1609 5.73561,2.87931 1.31937,-0.48873 1.22808,-1.61994 3.53065,0.77132 -0.67787,-3.21931 0.83698,-1.49566 -0.43169,-2.76995 4.94967,3.54428 -3.2029,-6.01584 3.60429,1.28002 -0.20639,-2.29609 0.32554,-2.18987 6.77648,4.1168 -3.52652,-6.41231 3.53618,1.45258 2.59891,0.462 1.2619,-0.53153 -2.4593,-5.63642 0.98877,-1.13839 5.01984,2.918 0.0133,-2.07112 0.25564,-2.75247 0.41794,-1.76062 -1.5065,-3.63737 2.63219,-0.43708 0.39763,-1.81546 1.72666,-0.79115 -0.94745,-2.8958 3.4566,1.1147 2.56843,0.41558 -3.76691,-6.64676 4.35394,2.36021 -31.07667,-33.24516 30.9731,28.47478 3.5299,1.28626 -3.74526,-7.0975 5.20885,2.97023 0.71168,-1.09831 -2.60176,-4.92528 2.3615,-0.12921 3.74146,1.08903 -2.36665,-4.32794 -1.03418,-3.35108 0.84398,-2.22511 2.37071,-0.068 1.10591,-0.38055 4.83826,1.67125 -2.98646,-5.42671 0.684,-1.14691 4.0075,1.1972 -2.17085,-4.12889 4.30741,1.56004 3.97809,1.81727 -1.25437,-3.65186 -29.13496,-30.87169 2.71008,-0.11729 28.92255,27.12706 0.83598,-2.52328 3.38037,1.7211 5.93221,1.15286 -0.62282,-3.4137 0.20575,-2.6008 0.27928,-2.0284 4.72696,3.04699 2.59751,-0.30975 2.56645,0.3503 -1.42303,-3.92457 2.23758,-0.21471 -0.0548,-2.0008 3.88817,1.06078 -1.14342,-3.41768 5.80431,3.59199 -2.9172,-5.46302 6.11236,3.59768 -1.67426,-4.08587 3.12949,1.23557 -32.10723,-34.77232 35.39799,33.42042 -1.92994,-4.27762 0.69259,-1.85597 -0.13954,-2.21769 2.8468,0.44722 3.62119,1.47639 1.93577,-1.14381 0.3631,-1.96789 1.47311,-0.559 -1.26131,-3.54134 2.7722,0.67946 -0.82607,-3.11562 1.48012,-1.70565 -3.05828,-4.764 6.20184,3.58315 -4.28003,-7.01979 3.66814,1.80234 -1.70095,-4.19412 1.49208,-0.79274 0.93592,-1.79366 3.2019,1.10954 1.0743,-1.85063 -0.4087,-2.77299 1.71799,0.26768 2.67493,0.0224 -3.14276,-5.87929 2.64052,-0.005 -0.96828,-3.291 4.99012,4.99011 v 0"
       style="fill:none;stroke:#e90000;stroke-width:2.24999999;stroke-linecap:square;stroke-linejoin:round;stroke-miterlimit:4;stroke-dasharray:none"
       id="path456"
       inkscape:connector-curvature="0" />
  </g>
  <defs
     id="defs596">
    <clipPath
       id="pd252e982ba"
       style="stroke-linecap:butt;stroke-linejoin:round">
      <rect
         height="427.35355"
         width="446.39999"
         x="72"
         y="72.883232"
         id="rect593"
         style="stroke-linecap:butt;stroke-linejoin:round" />
    </clipPath>
  </defs>
</svg>
