<?xml version="1.0" encoding="UTF-8" standalone="no"?>
<!-- Generator: Adobe Illustrator 18.0.0, SVG Export Plug-In . SVG Version: 6.00 Build 0)  -->

<svg
   xmlns:dc="http://purl.org/dc/elements/1.1/"
   xmlns:cc="http://creativecommons.org/ns#"
   xmlns:rdf="http://www.w3.org/1999/02/22-rdf-syntax-ns#"
   xmlns:svg="http://www.w3.org/2000/svg"
   xmlns="http://www.w3.org/2000/svg"
   xmlns:sodipodi="http://sodipodi.sourceforge.net/DTD/sodipodi-0.dtd"
   xmlns:inkscape="http://www.inkscape.org/namespaces/inkscape"
   version="1.1"
   id="Capa_1"
   x="0px"
   y="0px"
   viewBox="0 0 458.35015 480.41381"
   xml:space="preserve"
   sodipodi:docname="bcSaveqml.svg"
   inkscape:version="0.92.3 (2405546, 2018-03-11)"
   width="458.35016"
   height="480.41382"
   inkscape:export-filename="C:\Users\benoi\Downloads\80910.png"
   inkscape:export-xdpi="6.7941427"
   inkscape:export-ydpi="6.7941427"><metadata
   id="metadata51"><rdf:RDF><cc:Work
       rdf:about=""><dc:format>image/svg+xml</dc:format><dc:type
         rdf:resource="http://purl.org/dc/dcmitype/StillImage" /><dc:title></dc:title></cc:Work></rdf:RDF></metadata><defs
   id="defs49">
	
	
	
	
	
	
</defs><sodipodi:namedview
   pagecolor="#ffffff"
   bordercolor="#666666"
   borderopacity="1"
   objecttolerance="10"
   gridtolerance="10"
   guidetolerance="10"
   inkscape:pageopacity="0"
   inkscape:pageshadow="2"
   inkscape:window-width="1778"
   inkscape:window-height="970"
   id="namedview47"
   showgrid="false"
   inkscape:zoom="0.97229286"
   inkscape:cx="244.7426"
   inkscape:cy="223.32257"
   inkscape:window-x="2036"
   inkscape:window-y="5"
   inkscape:window-maximized="0"
   inkscape:current-layer="Capa_1"
   fit-margin-top="0"
   fit-margin-left="0"
   fit-margin-right="0"
   fit-margin-bottom="0" />

<g
   id="g16"
   transform="translate(-13.916368,-1.2865921e-4)">
</g>
<g
   id="g18"
   transform="translate(-13.916368,-1.2865921e-4)">
</g>
<g
   id="g20"
   transform="translate(-13.916368,-1.2865921e-4)">
</g>
<g
   id="g22"
   transform="translate(-13.916368,-1.2865921e-4)">
</g>
<g
   id="g24"
   transform="translate(-13.916368,-1.2865921e-4)">
</g>
<g
   id="g26"
   transform="translate(-13.916368,-1.2865921e-4)">
</g>
<g
   id="g28"
   transform="translate(-13.916368,-1.2865921e-4)">
</g>
<g
   id="g30"
   transform="translate(-13.916368,-1.2865921e-4)">
</g>
<g
   id="g32"
   transform="translate(-13.916368,-1.2865921e-4)">
</g>
<g
   id="g34"
   transform="translate(-13.916368,-1.2865921e-4)">
</g>
<g
   id="g36"
   transform="translate(-13.916368,-1.2865921e-4)">
</g>
<g
   id="g38"
   transform="translate(-13.916368,-1.2865921e-4)">
</g>
<g
   id="g40"
   transform="translate(-13.916368,-1.2865921e-4)">
</g>
<g
   id="g42"
   transform="translate(-13.916368,-1.2865921e-4)">
</g>
<g
   id="g44"
   transform="translate(-13.916368,-1.2865921e-4)">
</g>
<g
   id="g981"
   transform="translate(24.519913,-1.2865921e-4)"><path
     sodipodi:open="true"
     d="m 30.26501,210.39205 a 14.911064,14.279705 0 0 1 7.215147,-18.9507 14.911064,14.279705 0 0 1 19.805294,6.86559 14.911064,14.279705 0 0 1 -7.123093,18.98261 14.911064,14.279705 0 0 1 -19.838402,-6.77736"
     sodipodi:end="2.6976927"
     sodipodi:start="2.7069886"
     sodipodi:ry="14.279705"
     sodipodi:rx="14.911064"
     sodipodi:cy="204.37956"
     sodipodi:cx="43.789894"
     sodipodi:type="arc"
     id="path952"
     style="fill:#ff0000;fill-rule:evenodd;stroke-width:1.49551165" /><path
     sodipodi:nodetypes="ccc"
     inkscape:connector-curvature="0"
     id="path950"
     d="M 21.598431,19.738497 C 88.526194,-21.748575 118.56285,106.46343 145.01803,251.15025 v 1.0285"
     style="opacity:1;vector-effect:none;fill:none;fill-opacity:1;stroke:#000000;stroke-width:10;stroke-linecap:butt;stroke-linejoin:miter;stroke-miterlimit:0.5;stroke-dasharray:none;stroke-dashoffset:0;stroke-opacity:1" /><path
     sodipodi:nodetypes="cc"
     inkscape:connector-curvature="0"
     id="path948"
     d="M 18.512941,140.07261 C 60.885526,-3.3770024 68.386137,112.22234 73.023266,249.09326"
     style="opacity:1;vector-effect:none;fill:none;fill-opacity:1;stroke:#000000;stroke-width:10;stroke-linecap:butt;stroke-linejoin:miter;stroke-miterlimit:0.5;stroke-dasharray:none;stroke-dashoffset:0;stroke-opacity:1" /><path
     inkscape:connector-curvature="0"
     id="path946"
     d="M 9.2945719,0.56201172 -3.836174,237.826 c -0.584,10.592 7.525,19.661 18.116,20.244 l 69.047002,3.838 152.542512,7.77714 7.91249,-252.393144 -24.444,3.475 L 215.66798,248.21519 79.849828,237.48 l -54.86,-3.049 c -2.411002,-0.135 -4.264002,-2.206 -4.130002,-4.617 L 33.587126,0.56201172 m 187.857114,0 -2.10641,20.20498428 24.444,-3.475 0.41797,-16.72998428"
     sodipodi:nodetypes="cccccccccccccccc" /><g
     transform="translate(46.550388)"
     id="g879"><rect
       style="opacity:1;fill:#d7383c;fill-opacity:1;fill-rule:nonzero;stroke:none;stroke-width:0.44100001;stroke-linecap:round;stroke-linejoin:round;stroke-miterlimit:0.5;stroke-dasharray:none;stroke-opacity:1;paint-order:markers fill stroke"
       id="rect864"
       width="203.64235"
       height="113.13464"
       x="55.538822"
       y="21.79549" /><rect
       style="opacity:1;fill:#f6f73c;fill-opacity:1;fill-rule:nonzero;stroke:none;stroke-width:0.44100001;stroke-linecap:round;stroke-linejoin:round;stroke-miterlimit:0.5;stroke-dasharray:none;stroke-opacity:1;paint-order:markers fill stroke"
       id="rect866"
       width="60.681305"
       height="90.507706"
       x="77.137253"
       y="134.93013" /><rect
       style="opacity:1;fill:#d7813c;fill-opacity:1;fill-rule:nonzero;stroke:none;stroke-width:0.44100001;stroke-linecap:round;stroke-linejoin:round;stroke-miterlimit:0.5;stroke-dasharray:none;stroke-opacity:1;paint-order:markers fill stroke"
       id="rect868"
       width="28.797907"
       height="46.282352"
       x="48.339344"
       y="123.61666" /><rect
       style="opacity:1;fill:#d7f13c;fill-opacity:1;fill-rule:nonzero;stroke:none;stroke-width:0.44100001;stroke-linecap:round;stroke-linejoin:round;stroke-miterlimit:0.5;stroke-dasharray:none;stroke-opacity:1;paint-order:markers fill stroke"
       id="rect870"
       width="40.111374"
       height="122.39111"
       x="48.339344"
       y="169.89902" /><rect
       style="opacity:1;fill:#0ca43c;fill-opacity:1;fill-rule:nonzero;stroke:none;stroke-width:0.44100001;stroke-linecap:round;stroke-linejoin:round;stroke-miterlimit:0.5;stroke-dasharray:none;stroke-opacity:1;paint-order:markers fill stroke"
       id="rect872"
       width="55.538822"
       height="87.422226"
       x="88.450714"
       y="204.8679" /></g><path
     sodipodi:nodetypes="ccccccccccccccccccccccc"
     d="m 101.86239,278.334 c -2.411002,-0.135 -4.264002,-2.206 -4.130002,-4.617 L 111.31739,28.855 c 0.063,-1.159 0.592,-2.246 1.459,-3.018 0.858,-0.781 2.001,-1.176 3.16,-1.112 l 177.555,9.859 c 2.411,0.134 4.264,2.206 4.13,4.617 l -1.411,25.469 24.444,-3.475 1.663,-30.008 c 0.591,-10.59 -7.525,-19.66 -18.117,-20.244 L 107.92239,0.03 c -5.082,-0.284 -10.079002,1.466 -13.878002,4.869 -3.789,3.398 -6.082,8.164 -6.366,13.246 l -14.642,263.584 c -0.584,10.592 7.525,19.661 18.116,20.244 l 69.047002,3.838 152.54251,7.77714 7.91249,-252.39314 -24.444,3.475 -3.66985,227.44819 L 156.72239,281.383 Z"
     id="path2"
     inkscape:connector-curvature="0" /><g
     transform="translate(-67.612752,-40.111371)"
     id="g912"><path
       style="opacity:1;fill:#ffffff;fill-opacity:1;fill-rule:nonzero;stroke:none;stroke-width:10;stroke-linecap:round;stroke-linejoin:round;stroke-miterlimit:0.5;stroke-dasharray:none;stroke-opacity:1;paint-order:markers fill stroke"
       d="m 286.95058,60.878367 134.57934,13.496483 59.259,86.885 -56.01979,198.91106 -184.10091,-33.94039 z"
       id="rect902"
       inkscape:connector-curvature="0"
       sodipodi:nodetypes="cccccc" /><g
       id="g900"
       transform="translate(24.683921,-110.04915)"><path
         d="m 396.846,184.424 -116.272,-22.19 c -16.981,-3.237 -33.436,7.943 -36.689,24.942 l -43.476,227.862 c -3.246,16.974 7.943,33.451 24.918,36.689 l 158.658,30.275 c 16.967,3.239 33.436,-7.951 36.675,-24.933 l 35.445,-185.76 z m 4.933,269.039 c -1.254,6.588 -7.629,10.898 -14.192,9.645 L 228.943,432.832 c -6.58,-1.252 -10.923,-7.619 -9.669,-14.192 l 43.49,-227.854 c 1.261,-6.596 7.635,-10.923 14.208,-9.669 l 108.471,20.701 0.607,0.897 -7.542,39.496 c -2.255,11.811 5.484,23.199 17.281,25.453 l 39.715,7.581 0.221,0.306 z"
         id="path6"
         inkscape:connector-curvature="0" /><ellipse
         cx="338.88965"
         cy="362.74213"
         rx="68.395035"
         ry="76.623001"
         id="path881"
         style="fill:none;fill-rule:evenodd;stroke:#000000;stroke-width:10;stroke-miterlimit:4;stroke-dasharray:none;stroke-opacity:1" /><ellipse
         style="fill:none;fill-rule:evenodd;stroke:#000000;stroke-width:7.20338058;stroke-miterlimit:4;stroke-dasharray:none;stroke-opacity:1"
         id="ellipse883"
         ry="56.422878"
         rx="48.194912"
         cy="362.74213"
         cx="338.88965" /><ellipse
         cx="338.88965"
         cy="362.74213"
         rx="29.055313"
         ry="34.015717"
         id="ellipse885"
         style="fill:none;fill-rule:evenodd;stroke:#000000;stroke-width:4.34270906;stroke-miterlimit:4;stroke-dasharray:none;stroke-opacity:1" /><path
         sodipodi:nodetypes="cccc"
         inkscape:connector-curvature="0"
         id="path889"
         d="m 236.55424,301.54659 c 47.42164,-49.46612 99.65896,-68.43286 155.303,-65.82379 l 5.14249,-23.65542 c -50.09349,2.81263 -121.56945,43.04457 -150.16052,8.22797"
         style="opacity:1;vector-effect:none;fill:none;fill-opacity:1;stroke:#000000;stroke-width:10;stroke-linecap:butt;stroke-linejoin:miter;stroke-miterlimit:0.5;stroke-dasharray:none;stroke-dashoffset:0;stroke-opacity:1" /></g></g></g><text
   xml:space="preserve"
   style="font-style:normal;font-variant:normal;font-weight:normal;font-stretch:normal;font-size:71.12242126px;line-height:0;font-family:Verdana;-inkscape-font-specification:Verdana;letter-spacing:0px;word-spacing:0px;fill:#000000;fill-opacity:1;stroke:none;stroke-width:1.77806044"
   x="-21.086685"
   y="498.50418"
   id="text893"
   transform="scale(1.105837,0.9042924)"><tspan
     sodipodi:role="line"
     id="tspan891"
     x="-21.086685"
     y="498.50418"
     style="font-size:170.69380188px;line-height:0px;stroke-width:1.77806044">.QML</tspan></text>
</svg>